# xmcd CD database file
#
# Track frame offsets:
#	150
#	20637
#	32596
#	60216
#	79940
#	100263
#	119739
#	144092
#	169653
#	189282
#	214562
#	236994
#	253687
#	282077
#	300587
#	321841
#
# Disc length: 4555 seconds
#
# Revision: 0
# Processed by: cddbd v1.5.2PL0 Copyright (c) Steve Scherf et al.
# Submitted via: CDex 1.51
#
DISCID=d611c910
DTITLE=Fercho "El Bacan" - Top DJ's Salsa (Vol. 2)
DYEAR=1900
DGENRE=Salsa
TTITLE0=La guerra de los callados
TTITLE1=Mambo N° 5 (Version Salsa)
TTITLE2=Las caras lindas
TTITLE3=Ven caraqueña
TTITLE4=Mi libertad (continuacion de "El Preso")
TTITLE5=Barranquillero arrebatao
TTITLE6=Guaguanco del adios
TTITLE7=El nazareno
TTITLE8=Ella se fue
TTITLE9=Mosaico (salsa y control - fé)
TTITLE10=Plantación adentro
TTITLE11=Solo mentiras
TTITLE12=Rebelión
TTITLE13=El hombre misterioso
TTITLE14=Tu la pagarás
TTITLE15=Chan chan
EXTD=
EXTT0=
EXTT1=
EXTT2=
EXTT3=
EXTT4=
EXTT5=
EXTT6=
EXTT7=
EXTT8=
EXTT9=
EXTT10=
EXTT11=
EXTT12=
EXTT13=
EXTT14=
EXTT15=
PLAYORDER=
